<?xml version="1.0" encoding="UTF-8"?>
<svg width="700pt" height="700pt" version="1.1" viewBox="0 0 700 700" xmlns="http://www.w3.org/2000/svg" xmlns:xlink="http://www.w3.org/1999/xlink">
 <g>
  <path d="m208.27 240.5-25.199 67.195c-1.1641 3.1211-1.3789 6.4961-0.62109 9.7266 11.039 47.262 28.395 71.426 66.754 90.805v22.969c-9.2852 0-16.801 7.5156-16.801 16.801v67.199c0 9.2852 7.5156 16.801 16.801 16.801h184.8c9.2852 0 16.801-7.5156 16.801-16.801v-67.199c0-9.2852-7.5156-16.801-16.801-16.801v-23.676c24.086-15.797 39.723-47.594 46.531-94.711 1.3281-9.1914-5.0352-17.711-14.207-19.039-9.3008-1.3438-17.719 5.0273-19.027 14.219-4.0977 28.285-13.797 64.113-36.832 74.223-6.1289 2.6836-10.066 8.7266-10.066 15.387v33.602l-117.6-0.003906v-33.602c0-6.6289-3.9023-12.652-9.957-15.34-34.254-15.277-47.066-30.234-56.504-67.594l19.309-51.465h59.438c-5.8086 10.035-16.672 16.801-29.086 16.801-9.2852 0-16.801 7.5195-16.801 16.801 0 9.2852 7.5156 16.801 16.801 16.801 23.398 0 33.566 25.547 33.602 33.668 0.03125 9.25 7.5469 16.73 16.797 16.73h0.066406c9.2852-0.035156 16.766-7.582 16.734-16.867-0.050781-14.223-7.9258-35.027-23.527-49.711 14.391-12.324 23.527-30.625 23.527-51.023 0-9.2773-7.5156-16.801-16.801-16.801l-92.398 0.003906c-7.0039 0-13.273 4.3438-15.734 10.902zm57.734 224.3h151.2v33.602l-151.2-0.003906z"/>
  <path d="m484.4 187.6c0-23.156-18.832-42-42-42-5.2852 0-10.297 1.0859-14.957 2.8789-7.4453-11.785-20.5-19.68-35.441-19.68-9.4922 0-18.16 3.2812-25.199 8.6133-7.0391-5.332-15.707-8.6133-25.199-8.6133-9.4922 0-18.16 3.2812-25.199 8.6133-7.043-5.332-15.711-8.6133-25.203-8.6133-23.168 0-42 18.844-42 42v25.199c0 9.2773 7.5156 16.801 16.801 16.801s16.801-7.5195 16.801-16.801v-25.199c0-4.6367 3.7734-8.3984 8.3984-8.3984s8.3984 3.7617 8.3984 8.3984l0.003906 25.199c0 9.2773 7.5156 16.801 16.801 16.801s16.801-7.5195 16.801-16.801v-25.199c0-4.6367 3.7734-8.3984 8.3984-8.3984s8.3984 3.7617 8.3984 8.3984v50.398c0 23.156 18.832 42 42 42 5.2852 0 10.297-1.0859 14.957-2.8789 7.4492 11.785 20.504 19.68 35.441 19.68 23.168 0 42-18.844 42-42zm-84 33.598c0 4.6367-3.7734 8.3984-8.3984 8.3984-4.625 0.003906-8.3984-3.7617-8.3984-8.3984v-50.398c0-4.6367 3.7734-8.3984 8.3984-8.3984s8.3984 3.7617 8.3984 8.3984v50.398zm50.402 16.801c0 4.6367-3.7734 8.3984-8.3984 8.3984-4.6289 0-8.4023-3.7617-8.4023-8.3984v-50.398c0-4.6367 3.7734-8.3984 8.3984-8.3984s8.3984 3.7617 8.3984 8.3984z"/>
  <path d="m350 78.398c-9.2852 0-16.801-7.5195-16.801-16.801v-16.797c0-9.2773 7.5156-16.801 16.801-16.801s16.801 7.5195 16.801 16.801v16.801c0 9.2773-7.5156 16.797-16.801 16.797z"/>
  <path d="m226.25 99.262-8.3984-14.555c-4.6406-8.043-1.8867-18.312 6.1562-22.953 8.0078-4.6367 18.312-1.8867 22.953 6.1562l8.3984 14.555c4.6406 8.043 1.8867 18.312-6.1562 22.953-7.9805 4.6055-18.277 1.918-22.953-6.1562z"/>
  <path d="m152.45 185.34-14.539-8.3984c-8.043-4.6406-10.797-14.914-6.1562-22.953 4.6406-8.043 14.93-10.812 22.953-6.1367l14.539 8.3984c8.043 4.6406 10.797 14.914 6.1562 22.953-4.6719 8.0625-14.988 10.762-22.953 6.1367z"/>
  <path d="m450.8 105.41c-8.043-4.6406-10.797-14.914-6.1562-22.953l8.3984-14.555c4.6406-8.043 14.93-10.785 22.953-6.1562 8.043 4.6406 10.797 14.914 6.1562 22.953l-8.3984 14.555c-4.668 8.0781-14.973 10.766-22.953 6.1562z"/>
  <path d="m568.24 154c4.6406 8.043 1.8867 18.312-6.1562 22.953l-14.539 8.3984c-7.957 4.6211-18.277 1.9336-22.953-6.1367-4.6406-8.043-1.8867-18.312 6.1562-22.953l14.539-8.3984c8.0078-4.6797 18.293-1.9062 22.953 6.1367z"/>
  <path d="m114.8 296.8c-9.2852 0-16.801-7.5195-16.801-16.801 0-9.2773 7.5156-16.801 16.801-16.801h16.801c9.2852 0 16.801 7.5195 16.801 16.801 0 9.2773-7.5156 16.801-16.801 16.801z"/>
  <path d="m602 280c0 9.2773-7.5156 16.801-16.801 16.801h-16.801c-9.2852 0-16.801-7.5195-16.801-16.801 0-9.2773 7.5156-16.801 16.801-16.801h16.801c9.2852 0 16.801 7.5234 16.801 16.801z"/>
 </g>
</svg>
